<svg xmlns="http://www.w3.org/2000/svg" viewBox="0 0 350 350"><rect fill="#166506" width="350" height="350" rx="25"/><path fill="#fff" d="M152.1 21c13.6-7.5 30-8 44-1.4l2.8 1.4 98.6 58.1 1.4.9 1.3 1.1 1.6 1.1c10.2 7.7 16.9 19.2 18.4 31.8l.3 2.9.1 3v106c0 16.1-8.3 31-21.2 39.2l-2.5 1.5-99 62.6c-13.4 7.3-29.4 7.8-43.7 1l-2.9-1.5-97.4-61.6C39.8 259.4 30.7 245 29.6 229l-.1-3V120c0-16.1 8.3-31 21.5-39.4L152.1 21zM175 218.7c-7.4 0-13.6 5.5-14.4 12.8l-.1 1.7.1 1.8c.9 8 8.2 13.7 16.2 12.7 6.7-.8 11.9-6.1 12.7-12.7l.1-1.7-.1-1.8c-.9-7.3-7.1-12.8-14.5-12.8zm19.9-97.1c-17.9-9.2-39.8-4.8-52.8 10.6-5.2 6.1-4.5 15.3 1.6 20.5 5.6 4.8 13.9 4.6 19.3-.4l2.5-2.6c4.4-4 10.8-4.9 16.1-2.2 7.2 3.6 10 12.4 6.4 19.5-2.2 4.4-6.5 7.3-11.4 7.9l-3.4.2c-8 .9-13.7 8.1-12.9 16.1.8 7.4 7.1 13 14.5 13 24.1.1 43.7-19.4 43.8-43.5.2-16.5-9-31.6-23.7-39.1z"/></svg>