<svg xmlns="http://www.w3.org/2000/svg" viewBox="0 0 325 105" width="85" height="27"><path fill="#fff" d="M1.9 25.5c0-1.8.1-3.2.2-4.1.1-.9.5-2 1.1-3.1 1.1-2.1 4.2-3.2 9.2-3.2 5.5 0 8.8 1.5 9.8 4.4.4 1.3.6 3.4.6 6.1v65.7c0 1.9-.1 3.3-.2 4.1-.1.9-.5 1.9-1.1 3.1-1.1 2.1-4.2 3.2-9.2 3.2-5.5 0-8.7-1.5-9.7-4.5-.5-1.3-.7-3.3-.7-6V25.5zm88.4 56.1c3.1 0 5.3.4 6.7 1.1 1.4.8 2.3 1.8 2.8 3.3.5 1.4.8 3.2.8 5.4s-.2 4-.6 5.3c-.4 1.3-.9 2.4-1.4 3.1-.6.7-1.4 1.2-2.5 1.5-1.3.5-3.3.7-6 .7H40.9c-1.8 0-3.5-.5-5.2-1.4-3.5-2-5.2-5.1-5.2-9.3 0-2 .5-3.7 1.4-5l36.7-50.7H41.4c-1.9 0-3.3-.1-4.2-.2-.9-.1-2-.5-3.3-1-2.3-1.1-3.4-4.1-3.4-8.9 0-5 1.1-8.1 3.2-9.2 1.2-.6 2.2-1 3.1-1.1.9-.1 2.3-.2 4.2-.2h47.5c1.8 0 3.5.5 5.2 1.4 1.7.9 2.9 2.2 3.8 3.8.9 1.6 1.4 3.4 1.4 5.6 0 2.1-.5 3.8-1.4 5.1L60.9 81.6h29.4zm38.9-.7h36.4c1.8 0 3.2.1 4.1.2.9.1 2 .5 3.1 1.1 2.1 1.1 3.2 4.2 3.2 9.2 0 5.5-1.5 8.7-4.4 9.7-1.3.5-3.4.7-6.1.7h-46.8c-5.5 0-8.7-1.5-9.7-4.5-.5-1.3-.7-3.3-.7-6V25.5c0-4 .7-6.8 2.2-8.2 1.5-1.5 4.3-2.2 8.5-2.2h46.6c1.8 0 3.2.1 4.1.2.9.1 2 .5 3.1 1.1 2.1 1.1 3.2 4.2 3.2 9.2 0 5.5-1.5 8.7-4.4 9.7-1.3.5-3.4.7-6.1.7h-36.3v12h23.4c1.8 0 3.2.1 4.1.2.9.1 2 .5 3.1 1.1 2.1 1.1 3.2 4.2 3.2 9.2 0 5.5-1.5 8.8-4.5 9.7-1.3.5-3.4.7-6.1.7h-23.2v12zm120.9 6.2c1.2 2.8 1.8 4.9 1.8 6.1 0 3-2.4 5.5-7.3 7.6-2.5 1.1-4.6 1.7-6.1 1.7s-2.8-.4-3.8-1.1c-1-.7-1.7-1.5-2.2-2.3-.8-1.5-3.9-8.6-9.2-21.4l-3.7.2h-14.9v13.4c0 1.8-.1 3.2-.2 4.1-.1.9-.5 2-1.1 3.1-1.1 2.1-4.2 3.2-9.2 3.2-5.5 0-8.7-1.5-9.7-4.4-.5-1.3-.7-3.4-.7-6.1V25.5c0-1.8.1-3.2.2-4.1.1-.9.5-2 1.1-3.1 1.1-2.1 4.2-3.2 9.2-3.2h25.5c6.9 0 13.7 2.5 20.2 7.6 3.2 2.4 5.8 5.8 7.8 9.9 2 4.2 3.1 8.8 3.1 14 0 8.9-3 16.2-8.9 22 1.8 4.1 4.4 10.3 8.1 18.5zM204.7 57h15.1c2.3 0 4.6-.9 6.9-2.6 2.3-1.7 3.4-4.3 3.4-7.8s-1.1-6.1-3.4-7.9c-2.3-1.8-4.7-2.7-7.1-2.7h-14.9v21zm82.9 35.5-.2 1.4-.4 1.3c-1.8 4.8-6.6 7.9-11.8 7.3-6.2-.7-10.7-6.3-10-12.5l.2-1.4.4-1.3c1.9-5.4 7.6-8.4 13.1-7.1 5.6 1.3 9.3 6.6 8.7 12.3zm23.6-82C299.3.4 282-.2 269.5 9.1c-5 3.7-6.1 10.7-2.4 15.8 3.4 4.6 9.7 5.9 14.6 3.1l2.3-1.5c4-2.2 9-1.8 12.5 1.2 4.8 4 5.3 11.1 1.4 15.8-2.4 2.9-6.2 4.4-10 3.9l-2.6-.5c-6.2-.7-11.8 3.7-12.6 9.9-.7 5.7 3 11.1 8.6 12.4 18.2 4.4 36.4-6.9 40.8-25 3.1-12.4-1.1-25.4-10.9-33.7z"/></svg>